<svg xmlns="http://www.w3.org/2000/svg" xmlns:xlink="http://www.w3.org/1999/xlink" width="500" zoomAndPan="magnify" viewBox="0 0 375 374.999991" height="500" preserveAspectRatio="xMidYMid meet" version="1.0"><defs><g/><clipPath id="ae4ac3f56c"><path d="M 152.40625 107.617188 L 179 107.617188 L 179 182 L 152.40625 182 Z M 152.40625 107.617188 " clip-rule="nonzero"/></clipPath><clipPath id="1510daf6e0"><path d="M 182 122 L 210 122 L 210 196.117188 L 182 196.117188 Z M 182 122 " clip-rule="nonzero"/></clipPath><clipPath id="a3b10f0eec"><path d="M 218 110 L 222.90625 110 L 222.90625 116 L 218 116 Z M 218 110 " clip-rule="nonzero"/></clipPath></defs><g clip-path="url(#ae4ac3f56c)"><path fill="#393536" d="M 152.429688 149.265625 L 152.429688 140.019531 C 154.308594 139.917969 155.726562 139.636719 156.683594 139.171875 C 157.636719 138.710938 158.460938 137.933594 159.15625 136.839844 C 159.851562 135.75 160.328125 134.382812 160.585938 132.738281 C 160.792969 131.503906 160.898438 129.359375 160.898438 126.304688 C 160.898438 121.320312 161.128906 117.847656 161.59375 115.882812 C 162.058594 113.917969 162.894531 112.335938 164.105469 111.144531 C 165.316406 109.949219 167.082031 109.003906 169.402344 108.3125 C 170.976562 107.847656 173.449219 107.617188 176.828125 107.617188 L 178.875 107.617188 L 178.875 116.828125 C 176.015625 116.828125 174.179688 116.988281 173.367188 117.308594 C 172.554688 117.628906 171.957031 118.117188 171.570312 118.769531 C 171.183594 119.425781 170.988281 120.550781 170.988281 122.144531 C 170.988281 123.761719 170.871094 126.832031 170.640625 131.351562 C 170.511719 133.894531 170.175781 135.957031 169.636719 137.535156 C 169.09375 139.113281 168.402344 140.417969 167.566406 141.445312 C 166.730469 142.472656 165.445312 143.539062 163.71875 144.644531 C 165.242188 145.515625 166.484375 146.539062 167.449219 147.707031 C 168.417969 148.875 169.15625 150.292969 169.675781 151.964844 C 170.191406 153.632812 170.523438 155.867188 170.679688 158.667969 C 170.859375 162.929688 170.949219 165.652344 170.949219 166.835938 C 170.949219 168.53125 171.15625 169.710938 171.570312 170.378906 C 171.980469 171.046875 172.605469 171.554688 173.445312 171.902344 C 174.28125 172.25 176.09375 172.421875 178.875 172.421875 L 178.875 181.667969 L 176.828125 181.667969 C 173.347656 181.667969 170.679688 181.390625 168.824219 180.839844 C 166.96875 180.289062 165.402344 179.371094 164.125 178.085938 C 162.847656 176.800781 161.992188 175.214844 161.554688 173.328125 C 161.117188 171.4375 160.898438 168.464844 160.898438 164.410156 C 160.898438 159.683594 160.691406 156.613281 160.277344 155.199219 C 159.710938 153.144531 158.855469 151.675781 157.707031 150.789062 C 156.558594 149.902344 154.800781 149.394531 152.429688 149.265625 " fill-opacity="1" fill-rule="nonzero"/></g><path fill="#eeb30d" d="M 211.089844 126.800781 L 205.035156 126.800781 L 205.035156 120.769531 L 211.089844 120.769531 L 211.089844 126.800781 " fill-opacity="1" fill-rule="nonzero"/><path fill="#eeb30d" d="M 209.660156 138.859375 L 205.035156 138.859375 L 205.035156 134.253906 L 209.660156 134.253906 L 209.660156 138.859375 " fill-opacity="1" fill-rule="nonzero"/><g clip-path="url(#1510daf6e0)"><path fill="#eeb30d" d="M 192.054688 131.410156 L 192.054688 126.800781 L 196.679688 126.800781 L 196.679688 131.410156 Z M 203.816406 152.949219 C 202.65625 152.0625 201.792969 150.59375 201.226562 148.539062 C 200.914062 147.378906 200.726562 145.15625 200.667969 141.875 L 196.679688 141.875 L 196.679688 135.84375 L 200.578125 135.84375 C 200.484375 133.519531 200.277344 131.707031 199.96875 130.410156 C 199.515625 128.523438 198.660156 126.929688 197.398438 125.632812 C 196.132812 124.335938 194.574219 123.417969 192.71875 122.878906 C 190.863281 122.339844 188.195312 122.070312 184.714844 122.070312 L 182.664062 122.070312 L 182.664062 131.277344 C 185.578125 131.277344 187.453125 131.449219 188.292969 131.796875 C 189.128906 132.144531 189.710938 132.636719 190.03125 133.28125 C 190.355469 133.921875 190.527344 135.207031 190.554688 137.132812 C 190.683594 143.246094 190.886719 147.203125 191.171875 149 C 191.609375 151.621094 192.433594 153.777344 193.648438 155.472656 C 194.523438 156.652344 195.914062 157.859375 197.824219 159.09375 C 196.351562 159.941406 195.148438 160.921875 194.207031 162.042969 C 193.265625 163.160156 192.511719 164.519531 191.945312 166.125 C 191.378906 167.730469 191.03125 169.867188 190.902344 172.539062 C 190.695312 176.957031 190.585938 179.949219 190.574219 181.515625 C 190.558594 183.082031 190.355469 184.195312 189.953125 184.851562 C 189.554688 185.503906 188.929688 186.003906 188.078125 186.351562 C 187.226562 186.699219 185.421875 186.871094 182.664062 186.871094 L 182.664062 196.121094 L 184.714844 196.121094 C 188.089844 196.121094 190.566406 195.886719 192.136719 195.425781 C 194.484375 194.730469 196.261719 193.789062 197.476562 192.59375 C 198.6875 191.398438 199.515625 189.8125 199.96875 187.835938 C 200.417969 185.855469 200.644531 182.378906 200.644531 177.394531 C 200.644531 174.363281 200.75 172.230469 200.953125 171 C 201.238281 169.355469 201.722656 167.988281 202.40625 166.894531 C 203.085938 165.804688 203.90625 165.027344 204.859375 164.566406 C 205.8125 164.101562 207.230469 163.820312 209.113281 163.71875 L 209.113281 154.46875 C 206.742188 154.34375 204.976562 153.835938 203.816406 152.949219 " fill-opacity="1" fill-rule="nonzero"/></g><g clip-path="url(#a3b10f0eec)"><path fill="#eeb30d" d="M 222.890625 115.089844 L 218.265625 115.089844 L 218.265625 110.480469 L 222.890625 110.480469 L 222.890625 115.089844 " fill-opacity="1" fill-rule="nonzero"/></g><path fill="#eeb30d" d="M 199.703125 120.769531 L 191.074219 120.769531 L 191.074219 112.167969 L 199.703125 112.167969 L 199.703125 120.769531 " fill-opacity="1" fill-rule="nonzero"/><g fill="#393536" fill-opacity="1"><g transform="translate(106.42643, 238.909043)"><g><path d="M 13.59375 0.5 C 11.820312 0.5 10.175781 0.191406 8.65625 -0.421875 C 7.144531 -1.035156 5.835938 -1.894531 4.734375 -3 C 3.640625 -4.101562 2.785156 -5.410156 2.171875 -6.921875 C 1.554688 -8.429688 1.25 -10.078125 1.25 -11.859375 C 1.25 -13.628906 1.5625 -15.269531 2.1875 -16.78125 C 2.8125 -18.300781 3.671875 -19.617188 4.765625 -20.734375 C 5.867188 -21.847656 7.171875 -22.71875 8.671875 -23.34375 C 10.179688 -23.96875 11.8125 -24.28125 13.5625 -24.28125 C 15.40625 -24.28125 17.117188 -23.925781 18.703125 -23.21875 C 20.296875 -22.507812 21.671875 -21.488281 22.828125 -20.15625 L 19.203125 -16.65625 C 18.515625 -17.457031 17.703125 -18.085938 16.765625 -18.546875 C 15.835938 -19.003906 14.816406 -19.234375 13.703125 -19.234375 C 12.679688 -19.234375 11.742188 -19.050781 10.890625 -18.6875 C 10.046875 -18.320312 9.304688 -17.8125 8.671875 -17.15625 C 8.046875 -16.507812 7.5625 -15.734375 7.21875 -14.828125 C 6.875 -13.929688 6.703125 -12.960938 6.703125 -11.921875 C 6.703125 -10.859375 6.878906 -9.875 7.234375 -8.96875 C 7.597656 -8.070312 8.09375 -7.289062 8.71875 -6.625 C 9.34375 -5.96875 10.09375 -5.457031 10.96875 -5.09375 C 11.84375 -4.726562 12.800781 -4.546875 13.84375 -4.546875 C 14.976562 -4.546875 16.019531 -4.78125 16.96875 -5.25 C 17.914062 -5.726562 18.722656 -6.367188 19.390625 -7.171875 L 23 -3.734375 C 21.863281 -2.378906 20.492188 -1.332031 18.890625 -0.59375 C 17.296875 0.132812 15.53125 0.5 13.59375 0.5 Z M 13.59375 0.5 "/></g></g></g><g fill="#393536" fill-opacity="1"><g transform="translate(132.622738, 238.909043)"><g><path d="M 9.828125 0.5 C 8.597656 0.5 7.453125 0.273438 6.390625 -0.171875 C 5.328125 -0.628906 4.394531 -1.242188 3.59375 -2.015625 C 2.800781 -2.796875 2.179688 -3.710938 1.734375 -4.765625 C 1.285156 -5.828125 1.0625 -6.960938 1.0625 -8.171875 C 1.0625 -9.367188 1.285156 -10.492188 1.734375 -11.546875 C 2.179688 -12.609375 2.800781 -13.53125 3.59375 -14.3125 C 4.394531 -15.09375 5.328125 -15.707031 6.390625 -16.15625 C 7.453125 -16.601562 8.597656 -16.828125 9.828125 -16.828125 C 11.054688 -16.828125 12.203125 -16.601562 13.265625 -16.15625 C 14.335938 -15.707031 15.269531 -15.09375 16.0625 -14.3125 C 16.851562 -13.53125 17.472656 -12.609375 17.921875 -11.546875 C 18.378906 -10.492188 18.609375 -9.367188 18.609375 -8.171875 C 18.609375 -6.960938 18.378906 -5.828125 17.921875 -4.765625 C 17.472656 -3.710938 16.851562 -2.796875 16.0625 -2.015625 C 15.269531 -1.242188 14.335938 -0.628906 13.265625 -0.171875 C 12.203125 0.273438 11.054688 0.5 9.828125 0.5 Z M 9.828125 -4.015625 C 10.992188 -4.015625 11.9375 -4.394531 12.65625 -5.15625 C 13.375 -5.925781 13.734375 -6.941406 13.734375 -8.203125 C 13.734375 -9.410156 13.375 -10.394531 12.65625 -11.15625 C 11.9375 -11.925781 10.992188 -12.3125 9.828125 -12.3125 C 8.671875 -12.3125 7.726562 -11.925781 7 -11.15625 C 6.28125 -10.394531 5.921875 -9.410156 5.921875 -8.203125 C 5.921875 -6.941406 6.28125 -5.925781 7 -5.15625 C 7.726562 -4.394531 8.671875 -4.015625 9.828125 -4.015625 Z M 9.828125 -4.015625 "/></g></g></g><g fill="#393536" fill-opacity="1"><g transform="translate(154.772485, 238.909043)"><g><path d="M 8.90625 0.5 C 7.789062 0.5 6.757812 0.28125 5.8125 -0.15625 C 4.875 -0.59375 4.046875 -1.203125 3.328125 -1.984375 C 2.617188 -2.765625 2.0625 -3.679688 1.65625 -4.734375 C 1.257812 -5.785156 1.0625 -6.929688 1.0625 -8.171875 C 1.0625 -9.367188 1.257812 -10.492188 1.65625 -11.546875 C 2.0625 -12.609375 2.617188 -13.53125 3.328125 -14.3125 C 4.046875 -15.09375 4.890625 -15.707031 5.859375 -16.15625 C 6.828125 -16.601562 7.867188 -16.828125 8.984375 -16.828125 C 9.953125 -16.828125 10.84375 -16.660156 11.65625 -16.328125 C 12.476562 -15.992188 13.195312 -15.519531 13.8125 -14.90625 L 13.8125 -25.203125 L 18.5625 -25.203125 L 18.5625 0 L 14.015625 0 L 14.015625 -1.78125 C 13.398438 -1.09375 12.660156 -0.539062 11.796875 -0.125 C 10.941406 0.289062 9.976562 0.5 8.90625 0.5 Z M 9.9375 -3.828125 C 10.53125 -3.828125 11.070312 -3.941406 11.5625 -4.171875 C 12.0625 -4.398438 12.492188 -4.707031 12.859375 -5.09375 C 13.234375 -5.488281 13.519531 -5.941406 13.71875 -6.453125 C 13.914062 -6.972656 14.015625 -7.546875 14.015625 -8.171875 C 14.015625 -8.785156 13.914062 -9.351562 13.71875 -9.875 C 13.519531 -10.394531 13.234375 -10.847656 12.859375 -11.234375 C 12.492188 -11.628906 12.0625 -11.9375 11.5625 -12.15625 C 11.070312 -12.382812 10.53125 -12.5 9.9375 -12.5 C 9.375 -12.5 8.84375 -12.382812 8.34375 -12.15625 C 7.84375 -11.9375 7.414062 -11.628906 7.0625 -11.234375 C 6.707031 -10.847656 6.425781 -10.394531 6.21875 -9.875 C 6.019531 -9.351562 5.921875 -8.785156 5.921875 -8.171875 C 5.921875 -7.546875 6.019531 -6.972656 6.21875 -6.453125 C 6.425781 -5.941406 6.707031 -5.488281 7.0625 -5.09375 C 7.414062 -4.707031 7.84375 -4.398438 8.34375 -4.171875 C 8.84375 -3.941406 9.375 -3.828125 9.9375 -3.828125 Z M 9.9375 -3.828125 "/></g></g></g><g fill="#393536" fill-opacity="1"><g transform="translate(177.774129, 238.909043)"><g><path d="M 9.875 0.5 C 8.570312 0.5 7.378906 0.285156 6.296875 -0.140625 C 5.222656 -0.566406 4.296875 -1.15625 3.515625 -1.90625 C 2.734375 -2.664062 2.128906 -3.570312 1.703125 -4.625 C 1.273438 -5.6875 1.0625 -6.84375 1.0625 -8.09375 C 1.0625 -9.34375 1.273438 -10.5 1.703125 -11.5625 C 2.128906 -12.632812 2.71875 -13.5625 3.46875 -14.34375 C 4.226562 -15.125 5.128906 -15.734375 6.171875 -16.171875 C 7.210938 -16.609375 8.347656 -16.828125 9.578125 -16.828125 C 10.742188 -16.828125 11.816406 -16.628906 12.796875 -16.234375 C 13.773438 -15.847656 14.628906 -15.300781 15.359375 -14.59375 C 16.097656 -13.882812 16.675781 -13.039062 17.09375 -12.0625 C 17.507812 -11.09375 17.71875 -10.03125 17.71875 -8.875 C 17.71875 -8.445312 17.703125 -8.09375 17.671875 -7.8125 C 17.648438 -7.53125 17.601562 -7.1875 17.53125 -6.78125 L 6 -6.78125 C 6.238281 -5.789062 6.726562 -5.007812 7.46875 -4.4375 C 8.21875 -3.863281 9.171875 -3.578125 10.328125 -3.578125 C 11.160156 -3.578125 11.941406 -3.734375 12.671875 -4.046875 C 13.410156 -4.359375 14.097656 -4.851562 14.734375 -5.53125 L 17.25 -2.734375 C 16.332031 -1.671875 15.234375 -0.863281 13.953125 -0.3125 C 12.671875 0.226562 11.3125 0.5 9.875 0.5 Z M 13 -10.078125 C 12.78125 -11.078125 12.367188 -11.835938 11.765625 -12.359375 C 11.160156 -12.878906 10.410156 -13.140625 9.515625 -13.140625 C 8.585938 -13.140625 7.8125 -12.863281 7.1875 -12.3125 C 6.5625 -11.769531 6.140625 -11.023438 5.921875 -10.078125 Z M 13 -10.078125 "/></g></g></g><g fill="#393536" fill-opacity="1"><g transform="translate(199.036466, 238.909043)"><g><path d="M 2.65625 -23.78125 L 7.84375 -23.78125 L 7.84375 -14.484375 L 17.109375 -14.484375 L 17.109375 -23.78125 L 22.296875 -23.78125 L 22.296875 0 L 17.109375 0 L 17.109375 -9.625 L 7.84375 -9.625 L 7.84375 0 L 2.65625 0 Z M 2.65625 -23.78125 "/></g></g></g><g fill="#393536" fill-opacity="1"><g transform="translate(226.475128, 238.909043)"><g><path d="M 7.921875 0.5 C 7.015625 0.5 6.1875 0.328125 5.4375 -0.015625 C 4.695312 -0.359375 4.054688 -0.832031 3.515625 -1.4375 C 2.972656 -2.039062 2.546875 -2.75 2.234375 -3.5625 C 1.929688 -4.382812 1.78125 -5.269531 1.78125 -6.21875 L 1.78125 -16.328125 L 6.53125 -16.328125 L 6.53125 -7.390625 C 6.53125 -6.296875 6.789062 -5.425781 7.3125 -4.78125 C 7.832031 -4.144531 8.539062 -3.828125 9.4375 -3.828125 C 10.34375 -3.828125 11.0625 -4.160156 11.59375 -4.828125 C 12.125 -5.492188 12.390625 -6.378906 12.390625 -7.484375 L 12.390625 -16.328125 L 17.140625 -16.328125 L 17.140625 0 L 12.5625 0 L 12.5625 -1.953125 C 11.96875 -1.171875 11.28125 -0.566406 10.5 -0.140625 C 9.726562 0.285156 8.867188 0.5 7.921875 0.5 Z M 7.921875 0.5 "/></g></g></g><g fill="#393536" fill-opacity="1"><g transform="translate(248.056921, 238.909043)"><g><path d="M 11.53125 0.5 C 10.539062 0.5 9.613281 0.316406 8.75 -0.046875 C 7.882812 -0.421875 7.144531 -0.9375 6.53125 -1.59375 L 6.53125 0 L 1.953125 0 L 1.953125 -25.203125 L 6.703125 -25.203125 L 6.703125 -14.765625 C 7.316406 -15.378906 8.039062 -15.875 8.875 -16.25 C 9.707031 -16.632812 10.628906 -16.828125 11.640625 -16.828125 C 12.734375 -16.828125 13.75 -16.609375 14.6875 -16.171875 C 15.632812 -15.734375 16.460938 -15.125 17.171875 -14.34375 C 17.890625 -13.5625 18.445312 -12.644531 18.84375 -11.59375 C 19.25 -10.539062 19.453125 -9.398438 19.453125 -8.171875 C 19.453125 -6.960938 19.25 -5.828125 18.84375 -4.765625 C 18.445312 -3.710938 17.890625 -2.796875 17.171875 -2.015625 C 16.460938 -1.242188 15.625 -0.628906 14.65625 -0.171875 C 13.6875 0.273438 12.644531 0.5 11.53125 0.5 Z M 10.578125 -3.828125 C 11.148438 -3.828125 11.6875 -3.941406 12.1875 -4.171875 C 12.695312 -4.398438 13.132812 -4.707031 13.5 -5.09375 C 13.875 -5.488281 14.164062 -5.941406 14.375 -6.453125 C 14.59375 -6.972656 14.703125 -7.546875 14.703125 -8.171875 C 14.703125 -8.785156 14.59375 -9.351562 14.375 -9.875 C 14.164062 -10.394531 13.875 -10.847656 13.5 -11.234375 C 13.132812 -11.628906 12.695312 -11.9375 12.1875 -12.15625 C 11.6875 -12.382812 11.148438 -12.5 10.578125 -12.5 C 9.984375 -12.5 9.4375 -12.382812 8.9375 -12.15625 C 8.445312 -11.9375 8.023438 -11.628906 7.671875 -11.234375 C 7.316406 -10.847656 7.035156 -10.394531 6.828125 -9.875 C 6.628906 -9.351562 6.53125 -8.785156 6.53125 -8.171875 C 6.53125 -7.546875 6.628906 -6.972656 6.828125 -6.453125 C 7.035156 -5.941406 7.316406 -5.488281 7.671875 -5.09375 C 8.023438 -4.707031 8.445312 -4.398438 8.9375 -4.171875 C 9.4375 -3.941406 9.984375 -3.828125 10.578125 -3.828125 Z M 10.578125 -3.828125 "/></g></g></g></svg>