<svg xmlns="http://www.w3.org/2000/svg" xmlns:xlink="http://www.w3.org/1999/xlink" width="500" zoomAndPan="magnify" viewBox="0 0 375 374.999991" height="500" preserveAspectRatio="xMidYMid meet" version="1.0"><defs><clipPath id="807cc89ce1"><path d="M 111.730469 82.46875 L 172 82.46875 L 172 251 L 111.730469 251 Z M 111.730469 82.46875 " clip-rule="nonzero"/></clipPath><clipPath id="0d10ad3a62"><path d="M 179 115 L 240 115 L 240 282.71875 L 179 282.71875 Z M 179 115 " clip-rule="nonzero"/></clipPath><clipPath id="99d39e953e"><path d="M 260 88 L 270.730469 88 L 270.730469 100 L 260 100 Z M 260 88 " clip-rule="nonzero"/></clipPath></defs><g clip-path="url(#807cc89ce1)"><path fill="#ffffff" d="M 111.777344 176.714844 L 111.777344 155.792969 C 116.019531 155.558594 119.21875 154.921875 121.371094 153.871094 C 123.519531 152.824219 125.382812 151.070312 126.949219 148.597656 C 128.519531 146.128906 129.597656 143.035156 130.179688 139.3125 C 130.640625 136.523438 130.875 131.671875 130.875 124.753906 C 130.875 113.480469 131.398438 105.617188 132.445312 101.175781 C 133.492188 96.730469 135.378906 93.152344 138.113281 90.453125 C 140.847656 87.75 144.828125 85.613281 150.0625 84.042969 C 153.605469 82.996094 159.1875 82.476562 166.804688 82.476562 L 171.425781 82.476562 L 171.425781 103.3125 C 164.976562 103.3125 160.832031 103.675781 159 104.398438 C 157.167969 105.128906 155.816406 106.230469 154.945312 107.710938 C 154.074219 109.195312 153.636719 111.738281 153.636719 115.339844 C 153.636719 119.003906 153.375 125.949219 152.851562 136.175781 C 152.5625 141.929688 151.804688 146.59375 150.585938 150.167969 C 149.363281 153.742188 147.808594 156.691406 145.917969 159.015625 C 144.027344 161.339844 141.136719 163.753906 137.242188 166.253906 C 140.671875 168.230469 143.476562 170.539062 145.65625 173.183594 C 147.839844 175.828125 149.507812 179.039062 150.671875 182.816406 C 151.835938 186.59375 152.589844 191.652344 152.9375 197.984375 C 153.34375 207.632812 153.550781 213.792969 153.550781 216.46875 C 153.550781 220.300781 154.015625 222.972656 154.945312 224.488281 C 155.875 225.996094 157.285156 227.148438 159.175781 227.929688 C 161.0625 228.714844 165.148438 229.105469 171.425781 229.105469 L 171.425781 250.027344 L 166.804688 250.027344 C 158.957031 250.027344 152.9375 249.402344 148.753906 248.15625 C 144.566406 246.90625 141.035156 244.828125 138.15625 241.921875 C 135.28125 239.015625 133.347656 235.425781 132.359375 231.15625 C 131.367188 226.882812 130.875 220.15625 130.875 210.976562 C 130.875 200.28125 130.410156 193.335938 129.480469 190.136719 C 128.199219 185.488281 126.269531 182.160156 123.679688 180.15625 C 121.09375 178.152344 117.125 177.003906 111.777344 176.714844 " fill-opacity="1" fill-rule="nonzero"/></g><path fill="#eeb30d" d="M 244.082031 125.878906 L 230.433594 125.878906 L 230.433594 112.234375 L 244.082031 112.234375 L 244.082031 125.878906 " fill-opacity="1" fill-rule="nonzero"/><path fill="#eeb30d" d="M 240.859375 153.167969 L 230.433594 153.167969 L 230.433594 142.742188 L 240.859375 142.742188 L 240.859375 153.167969 " fill-opacity="1" fill-rule="nonzero"/><g clip-path="url(#0d10ad3a62)"><path fill="#eeb30d" d="M 201.152344 136.304688 L 201.152344 125.878906 L 211.578125 125.878906 L 211.578125 136.304688 Z M 227.679688 185.042969 C 225.0625 183.039062 223.113281 179.714844 221.835938 175.0625 C 221.132812 172.441406 220.714844 167.414062 220.578125 159.992188 L 211.578125 159.992188 L 211.578125 146.34375 L 220.378906 146.34375 C 220.160156 141.082031 219.699219 136.984375 219 134.046875 C 217.984375 129.773438 216.050781 126.171875 213.203125 123.238281 C 210.351562 120.304688 206.835938 118.222656 202.648438 117.003906 C 198.460938 115.78125 192.445312 115.171875 184.597656 115.171875 L 179.976562 115.171875 L 179.976562 136.007812 C 186.542969 136.007812 190.773438 136.398438 192.664062 137.183594 C 194.554688 137.96875 195.859375 139.089844 196.589844 140.539062 C 197.316406 141.996094 197.707031 144.898438 197.765625 149.257812 C 198.054688 163.089844 198.519531 172.039062 199.160156 176.109375 C 200.148438 182.039062 202.007812 186.917969 204.742188 190.753906 C 206.71875 193.429688 209.855469 196.160156 214.160156 198.949219 C 210.847656 200.867188 208.128906 203.089844 206.007812 205.621094 C 203.882812 208.148438 202.183594 211.226562 200.90625 214.859375 C 199.625 218.492188 198.839844 223.332031 198.550781 229.375 C 198.085938 239.371094 197.835938 246.140625 197.808594 249.6875 C 197.777344 253.230469 197.316406 255.746094 196.414062 257.226562 C 195.511719 258.710938 194.101562 259.84375 192.183594 260.628906 C 190.265625 261.414062 186.195312 261.804688 179.976562 261.804688 L 179.976562 282.726562 L 184.597656 282.726562 C 192.210938 282.726562 197.792969 282.203125 201.339844 281.15625 C 206.632812 279.589844 210.640625 277.453125 213.378906 274.75 C 216.109375 272.046875 217.984375 268.457031 219 263.984375 C 220.019531 259.507812 220.527344 251.632812 220.527344 240.359375 C 220.527344 233.5 220.757812 228.675781 221.222656 225.886719 C 221.863281 222.167969 222.953125 219.074219 224.496094 216.601562 C 226.035156 214.132812 227.882812 212.375 230.035156 211.328125 C 232.183594 210.28125 235.382812 209.644531 239.625 209.410156 L 239.625 188.488281 C 234.277344 188.199219 230.292969 187.050781 227.679688 185.042969 " fill-opacity="1" fill-rule="nonzero"/></g><g clip-path="url(#99d39e953e)"><path fill="#eeb30d" d="M 270.695312 99.378906 L 260.265625 99.378906 L 260.265625 88.953125 L 270.695312 88.953125 L 270.695312 99.378906 " fill-opacity="1" fill-rule="nonzero"/></g><path fill="#eeb30d" d="M 218.402344 112.234375 L 198.9375 112.234375 L 198.9375 92.773438 L 218.402344 92.773438 L 218.402344 112.234375 " fill-opacity="1" fill-rule="nonzero"/></svg>